<svg width="512" height="512" viewBox="0 0 512 512" fill="none" xmlns="http://www.w3.org/2000/svg">
  <rect width="512" height="512" rx="128" fill="#059669"/>
  <path d="M256 96C200.3 96 154.7 141.6 154.7 197.3V256C154.7 311.7 200.3 357.3 256 357.3C311.7 357.3 357.3 311.7 357.3 256V197.3C357.3 141.6 311.7 96 256 96Z" fill="white" opacity="0.2"/>
  <path d="M256 128C217.6 128 186.7 158.9 186.7 197.3V256C186.7 294.4 217.6 325.3 256 325.3C294.4 325.3 325.3 294.4 325.3 256V197.3C325.3 158.9 294.4 128 256 128Z" fill="white"/>
  <path d="M256 160C234.1 160 216.5 177.6 216.5 199.5V256C216.5 277.9 234.1 295.5 256 295.5C277.9 295.5 295.5 277.9 295.5 256V199.5C295.5 177.6 277.9 160 256 160Z" fill="#059669"/>
  <path d="M224 224L240 240L288 192" stroke="white" stroke-width="24" stroke-linecap="round" stroke-linejoin="round"/>
</svg>
